<svg width="32" height="32" viewBox="0 0 32 32" fill="none" xmlns="http://www.w3.org/2000/svg">
<path d="M18.24 24.0933C18.24 23.84 18.3334 23.5866 18.5334 23.3866L25.92 16L18.5334 8.61331C18.1467 8.22664 18.1467 7.58664 18.5334 7.19997C18.92 6.81331 19.56 6.81331 19.9467 7.19997L28.04 15.2933C28.4267 15.68 28.4267 16.32 28.04 16.7066L19.9467 24.8C19.56 25.1866 18.92 25.1866 18.5334 24.8C18.3334 24.6133 18.24 24.3466 18.24 24.0933Z" fill="#0C9F85"/>
<path d="M3.66669 16C3.66669 15.4533 4.12002 15 4.66669 15L27.1067 15C27.6534 15 28.1067 15.4533 28.1067 16C28.1067 16.5467 27.6534 17 27.1067 17L4.66669 17C4.12002 17 3.66669 16.5467 3.66669 16Z" fill="#0C9F85"/>
</svg>
