<svg width="44" height="44" viewBox="0 0 44 44" fill="none" xmlns="http://www.w3.org/2000/svg">
<path d="M28.7731 25.7273C28.6009 25.5551 28.4921 25.3195 28.4921 25.0476L28.4921 15.0068L18.4513 15.0068C17.9257 15.0068 17.4908 14.5719 17.4908 14.0463C17.4908 13.5207 17.9257 13.0857 18.4513 13.0857L29.4527 13.0857C29.9783 13.0857 30.4133 13.5207 30.4133 14.0463L30.4133 25.0476C30.4133 25.5732 29.9783 26.0082 29.4527 26.0082C29.1899 26.0173 28.9452 25.8995 28.7731 25.7273Z" fill="white"/>
<path d="M13.3676 30.1315C12.996 29.7599 12.996 29.1437 13.3676 28.7722L28.619 13.5207C28.9906 13.1491 29.6068 13.1491 29.9784 13.5207C30.3499 13.8922 30.3499 14.5084 29.9784 14.88L14.7269 30.1315C14.3553 30.503 13.7391 30.503 13.3676 30.1315Z" fill="white"/>
</svg>
