<svg width="73" height="73" viewBox="0 0 73 73" fill="none" xmlns="http://www.w3.org/2000/svg">
<path d="M48.17 43.096C47.8831 42.809 47.7018 42.4163 47.7018 41.9632L47.7018 25.2286L30.9672 25.2286C30.0912 25.2286 29.3663 24.5037 29.3663 23.6277C29.3663 22.7517 30.0912 22.0267 30.9672 22.0267L49.3028 22.0267C50.1788 22.0267 50.9038 22.7517 50.9038 23.6277L50.9038 41.9632C50.9038 42.8392 50.1788 43.5642 49.3028 43.5642C48.8648 43.5793 48.457 43.383 48.17 43.096Z" fill="#363949"/>
<path d="M22.4942 50.4363C21.8749 49.817 21.8749 48.79 22.4942 48.1707L47.9133 22.7517C48.5325 22.1324 49.5595 22.1324 50.1788 22.7517C50.798 23.3709 50.798 24.3979 50.1788 25.0172L24.7597 50.4363C24.1404 51.0555 23.1134 51.0555 22.4942 50.4363Z" fill="#363949"/>
</svg>
