<svg width="602" height="665" viewBox="0 0 602 665" fill="none" xmlns="http://www.w3.org/2000/svg">
<path d="M492.126 478.457C491.909 478.288 491.594 478.326 491.425 478.544C490.702 479.47 489.977 480.395 489.247 481.319C488.518 482.243 487.787 483.163 487.054 484.081C486.882 484.297 486.917 484.611 487.133 484.784C485.873 486.358 484.608 487.923 483.337 489.478C483.124 489.304 482.809 489.335 482.634 489.549C481.153 491.359 479.665 493.157 478.169 494.941C477.992 495.153 478.02 495.469 478.232 495.646C476.935 497.191 475.634 498.726 474.327 500.252C474.117 500.072 473.802 500.096 473.622 500.306C472.094 502.087 470.559 503.855 469.017 505.609C468.835 505.817 468.855 506.133 469.063 506.315C467.739 507.819 466.411 509.313 465.078 510.797C464.872 510.613 464.556 510.629 464.371 510.835C462.797 512.585 461.215 514.322 459.627 516.045C459.439 516.248 459.452 516.565 459.655 516.752C458.291 518.229 456.922 519.697 455.549 521.154C455.348 520.965 455.032 520.974 454.842 521.175C453.235 522.877 451.621 524.566 450.001 526.241C449.809 526.44 449.814 526.756 450.013 526.948C448.608 528.398 447.198 529.838 445.784 531.267C445.588 531.073 445.272 531.074 445.077 531.271C443.43 532.933 441.777 534.581 440.117 536.215C439.921 536.409 439.918 536.725 440.112 536.922C438.675 538.335 437.233 539.737 435.787 541.129C435.596 540.929 435.279 540.923 435.08 541.114C433.387 542.741 431.688 544.353 429.983 545.95C429.782 546.139 429.771 546.456 429.96 546.657C428.497 548.025 427.031 549.383 425.56 550.729C425.373 550.525 425.057 550.511 424.853 550.697C423.114 552.287 421.369 553.861 419.62 555.42C419.413 555.603 419.395 555.919 419.579 556.126C418.076 557.462 416.57 558.786 415.06 560.1C414.879 559.891 414.563 559.869 414.354 560.05C412.584 561.587 410.809 563.108 409.029 564.613C408.818 564.791 408.792 565.107 408.97 565.318C407.427 566.62 405.882 567.91 404.332 569.188C404.157 568.975 403.842 568.945 403.629 569.12C401.824 570.607 400.015 572.077 398.201 573.531C397.986 573.703 397.951 574.018 398.124 574.233C396.546 575.496 394.964 576.747 393.38 577.985C393.21 577.767 392.896 577.729 392.678 577.898C390.829 579.341 388.975 580.767 387.118 582.175C386.898 582.342 386.855 582.656 387.022 582.876C385.419 584.089 383.814 585.29 382.205 586.478C382.041 586.256 381.728 586.208 381.506 586.372C379.612 587.769 377.714 589.147 375.813 590.509C375.588 590.669 375.537 590.982 375.698 591.206C374.066 592.372 372.432 593.525 370.796 594.664C370.638 594.437 370.326 594.381 370.1 594.539C368.166 595.883 366.228 597.209 364.288 598.516C364.059 598.671 363.999 598.981 364.153 599.21C362.483 600.333 360.811 601.443 359.137 602.538C358.986 602.307 358.677 602.242 358.445 602.393C356.482 603.676 354.515 604.939 352.547 606.184C352.313 606.332 352.244 606.641 352.391 606.874C350.683 607.952 348.973 609.015 347.262 610.064C347.118 609.828 346.81 609.754 346.575 609.898C344.582 611.117 342.587 612.316 340.59 613.496C340.352 613.636 340.273 613.943 340.414 614.181C338.668 615.21 336.92 616.224 335.172 617.223C335.035 616.984 334.73 616.9 334.49 617.037C332.455 618.197 330.418 619.336 328.381 620.455C328.139 620.588 328.051 620.892 328.184 621.134C326.413 622.104 324.641 623.059 322.869 623.998C322.74 623.754 322.438 623.66 322.194 623.789C320.117 624.887 318.04 625.963 315.962 627.017C315.716 627.142 315.618 627.443 315.743 627.689C313.948 628.598 312.153 629.49 310.358 630.366C310.237 630.118 309.938 630.014 309.689 630.135C307.572 631.165 305.455 632.173 303.338 633.159C303.087 633.275 302.979 633.573 303.095 633.823C301.277 634.667 299.458 635.494 297.64 636.304C297.528 636.052 297.233 635.938 296.98 636.05C294.823 637.008 292.667 637.943 290.512 638.854C290.257 638.962 290.138 639.255 290.246 639.51C288.396 640.289 286.548 641.05 284.7 641.794C284.597 641.538 284.306 641.414 284.05 641.516C281.861 642.394 279.675 643.248 277.49 644.076C277.232 644.174 277.102 644.463 277.2 644.721C275.318 645.431 273.438 646.124 271.56 646.797C271.467 646.537 271.181 646.402 270.921 646.495C268.705 647.286 266.491 648.052 264.28 648.792C264.018 648.879 263.877 649.163 263.965 649.425C262.053 650.061 260.143 650.679 258.236 651.277C258.154 651.013 257.873 650.866 257.61 650.948C255.367 651.648 253.127 652.32 250.891 652.966C250.626 653.042 250.473 653.32 250.549 653.585C248.61 654.142 246.673 654.678 244.739 655.194C244.669 654.927 244.395 654.768 244.128 654.839C241.859 655.44 239.594 656.014 237.335 656.558C237.066 656.623 236.901 656.893 236.966 657.162C235.001 657.632 233.041 658.081 231.084 658.508C231.026 658.238 230.759 658.066 230.49 658.125C228.196 658.621 225.909 659.088 223.629 659.524C223.357 659.576 223.18 659.838 223.231 660.109C221.246 660.486 219.265 660.84 217.289 661.171C217.244 660.898 216.986 660.714 216.714 660.759C214.399 661.142 212.092 661.494 209.793 661.814C209.52 661.852 209.329 662.105 209.367 662.378C207.365 662.653 205.368 662.904 203.378 663.131C203.347 662.857 203.1 662.659 202.825 662.69C200.493 662.951 198.17 663.179 195.857 663.374C195.582 663.397 195.377 663.639 195.4 663.914C193.387 664.079 191.381 664.219 189.382 664.334C189.367 664.058 189.131 663.847 188.855 663.862C186.512 663.992 184.178 664.086 181.856 664.145C181.58 664.152 181.362 664.381 181.369 664.657C179.352 664.704 177.343 664.725 175.342 664.718C175.344 664.442 175.121 664.217 174.845 664.216C172.497 664.203 170.16 664.153 167.836 664.066C167.56 664.056 167.328 664.271 167.318 664.546C165.305 664.466 163.302 664.358 161.308 664.222C161.328 663.947 161.12 663.708 160.845 663.688C158.501 663.523 156.171 663.318 153.855 663.074C153.581 663.045 153.335 663.243 153.306 663.518C151.307 663.302 149.318 663.057 147.342 662.782C147.38 662.509 147.19 662.256 146.917 662.218C144.589 661.888 142.278 661.518 139.983 661.107C139.712 661.058 139.452 661.238 139.403 661.51C137.427 661.15 135.463 660.759 133.512 660.338C133.571 660.069 133.4 659.803 133.13 659.744C130.836 659.242 128.56 658.697 126.302 658.109C126.035 658.04 125.762 658.199 125.692 658.466C123.748 657.954 121.818 657.41 119.902 656.834C119.982 656.57 119.833 656.291 119.569 656.211C117.328 655.53 115.107 654.805 112.907 654.036C112.646 653.945 112.361 654.082 112.27 654.342C110.374 653.673 108.493 652.97 106.628 652.235C106.73 651.978 106.605 651.688 106.348 651.586C104.177 650.722 102.027 649.812 99.9003 648.857C99.6486 648.744 99.353 648.857 99.2396 649.108C97.4094 648.28 95.5959 647.417 93.7996 646.521C93.9232 646.274 93.8236 645.974 93.5772 645.85C91.4916 644.802 89.4296 643.707 87.3918 642.566C87.1511 642.431 86.8468 642.516 86.7117 642.757C84.9653 641.772 83.2368 640.752 81.5267 639.699C81.6717 639.464 81.5995 639.156 81.3651 639.011C79.3845 637.782 77.4288 636.507 75.4988 635.185C75.2712 635.029 74.9604 635.087 74.8043 635.314C73.1554 634.177 71.5253 633.006 69.9146 631.8C70.0802 631.58 70.0359 631.267 69.8156 631.101C68.8814 630.397 67.9537 629.682 67.0327 628.955C66.1118 628.228 65.2006 627.492 64.2991 626.746C64.0865 626.571 63.7717 626.6 63.5957 626.813C62.0493 625.526 60.5316 624.212 59.0427 622.872C59.2275 622.668 59.2117 622.352 59.0072 622.167C57.2733 620.597 55.5788 618.991 53.9234 617.349C53.7275 617.155 53.4113 617.156 53.2169 617.352C51.795 615.933 50.4021 614.489 49.0382 613.019C49.2407 612.832 49.2533 612.516 49.0663 612.313C47.4832 610.596 45.9394 608.844 44.435 607.059C44.2572 606.848 43.9423 606.821 43.7311 606.999C42.4422 605.46 41.1824 603.896 39.9514 602.308C40.1697 602.14 40.2102 601.826 40.0418 601.607C38.6191 599.76 37.2354 597.881 35.8906 595.969C35.7318 595.744 35.4204 595.689 35.1946 595.848C34.0461 594.205 32.9261 592.538 31.8347 590.85C32.0665 590.7 32.1337 590.391 31.9847 590.159C30.7253 588.198 29.5044 586.206 28.3218 584.184C28.1826 583.946 27.8767 583.866 27.6384 584.005C26.6332 582.275 25.6559 580.524 24.7063 578.752C24.9496 578.622 25.0418 578.319 24.9122 578.076C23.8163 576.016 22.7578 573.929 21.7368 571.814C21.6168 571.565 21.3183 571.461 21.0697 571.58C20.207 569.781 19.3712 567.961 18.5623 566.123C18.8149 566.012 18.9302 565.718 18.8198 565.465C17.8865 563.328 16.9896 561.166 16.1288 558.979C16.0277 558.722 15.7379 558.596 15.481 558.697C14.755 556.837 14.0549 554.961 13.3807 553.066C13.6407 552.974 13.777 552.689 13.6851 552.429C12.91 550.233 12.1696 548.014 11.464 545.773C11.3811 545.51 11.1007 545.363 10.8375 545.446C10.2421 543.539 9.67178 541.615 9.1264 539.676C9.39205 539.602 9.54733 539.326 9.47321 539.06C8.84882 536.82 8.2577 534.559 7.69984 532.278C7.6343 532.01 7.36402 531.845 7.09593 531.911C6.62518 529.967 6.17847 528.008 5.75572 526.035C6.02556 525.978 6.19784 525.712 6.14062 525.442C5.6587 523.17 5.20859 520.878 4.79027 518.568C4.74105 518.297 4.48117 518.116 4.20965 518.165C3.85693 516.195 3.52724 514.211 3.22049 512.214C3.49321 512.173 3.68077 511.918 3.63939 511.645C3.29144 509.349 2.97381 507.037 2.68646 504.708C2.65266 504.434 2.40335 504.24 2.12949 504.273C1.88801 502.285 1.66812 500.284 1.47062 498.273C1.74546 498.247 1.94684 498.002 1.92037 497.727C1.69788 495.417 1.50435 493.091 1.33976 490.751C1.3204 490.476 1.08168 490.268 0.806378 490.287C0.669436 488.288 0.553079 486.279 0.458154 484.26C0.734017 484.248 0.947501 484.014 0.935023 483.738C0.830039 481.419 0.752744 479.086 0.703101 476.74C0.69729 476.464 0.468736 476.245 0.192646 476.251C0.153655 474.248 0.134799 472.237 0.135953 470.217C0.412121 470.217 0.636473 469.994 0.637066 469.718C0.642211 467.394 0.673909 465.058 0.73211 462.711C0.738973 462.435 0.520734 462.206 0.24469 462.199C0.297471 460.199 0.369424 458.19 0.460547 456.174C0.736374 456.187 0.970463 455.974 0.983351 455.698C1.09201 453.374 1.22614 451.039 1.38573 448.694C1.40446 448.419 1.19633 448.18 0.920852 448.162C1.05955 446.168 1.21657 444.167 1.39189 442.16C1.66695 442.184 1.90975 441.981 1.93417 441.706C2.1404 439.384 2.37113 437.053 2.62634 434.713C2.65631 434.439 2.45802 434.192 2.1835 434.162C2.4027 432.178 2.63941 430.189 2.89365 428.194C3.16755 428.229 3.41819 428.036 3.45346 427.762C3.75198 425.445 4.07413 423.119 4.41987 420.787C4.46036 420.514 4.27174 420.26 3.99859 420.219C4.2933 418.249 4.60479 416.274 4.933 414.294C5.20539 414.34 5.46309 414.156 5.50858 413.884C5.8943 411.576 6.3028 409.261 6.73402 406.941C6.78445 406.669 6.60528 406.408 6.3338 406.358C6.6999 404.401 7.08211 402.441 7.48045 400.476C7.75099 400.531 8.01507 400.356 8.07027 400.086C8.53709 397.798 9.0257 395.504 9.53613 393.206C9.59597 392.936 9.42597 392.669 9.15639 392.609C9.59175 390.66 10.0428 388.706 10.5095 386.75C10.778 386.814 11.0479 386.649 11.1123 386.38C11.6554 384.114 12.2196 381.844 12.8047 379.57C12.8735 379.302 12.7125 379.03 12.4451 378.961C12.947 377.019 13.4641 375.074 13.9963 373.127C14.2626 373.2 14.5378 373.043 14.6109 372.777C15.2263 370.535 15.8619 368.29 16.5175 366.041C16.5948 365.776 16.4426 365.499 16.1775 365.421C16.7434 363.489 17.3241 361.554 17.9196 359.616C18.1835 359.698 18.4634 359.55 18.5448 359.286C19.2287 357.07 19.9319 354.851 20.6545 352.629C20.7399 352.367 20.5963 352.085 20.3337 351.999C20.9567 350.091 21.5938 348.181 22.2453 346.269C22.5065 346.359 22.7908 346.219 22.8801 345.958C23.6337 343.754 24.4063 341.548 25.1978 339.34C25.291 339.08 25.1558 338.794 24.8958 338.701C25.5729 336.818 26.2637 334.934 26.9681 333.049C27.2267 333.146 27.5149 333.015 27.6118 332.757C28.4331 330.566 29.2728 328.374 30.1311 326.181C30.2317 325.923 30.1048 325.633 29.8477 325.533C30.5762 323.676 31.3179 321.819 32.0728 319.962C32.3286 320.066 32.6204 319.943 32.7246 319.687C33.607 317.522 34.5075 315.356 35.4258 313.189C35.5336 312.935 35.4149 312.642 35.1606 312.534C35.9427 310.694 36.7377 308.853 37.5456 307.013C37.7983 307.124 38.0934 307.009 38.2046 306.756C39.1436 304.623 40.0999 302.489 41.0736 300.355C41.1882 300.104 41.0774 299.807 40.8262 299.692C41.6627 297.864 42.512 296.035 43.3738 294.207C43.6235 294.325 43.9214 294.218 44.0393 293.969C45.0324 291.867 46.0423 289.766 47.0689 287.666C47.1901 287.418 47.0873 287.118 46.8394 286.997C47.723 285.193 48.619 283.39 49.5273 281.587C49.7738 281.712 50.0744 281.613 50.1988 281.366C51.2497 279.285 52.3171 277.205 53.4008 275.127C53.5285 274.882 53.4335 274.58 53.1886 274.452C54.1154 272.678 55.054 270.906 56.0046 269.134C56.2478 269.265 56.551 269.173 56.6817 268.93C57.7915 266.866 58.9174 264.804 60.0595 262.743C60.1934 262.501 60.1061 262.197 59.8647 262.063C60.8329 260.32 61.8125 258.578 62.8037 256.837C63.0435 256.974 63.3488 256.891 63.4856 256.651C64.6433 254.622 65.8167 252.595 67.0058 250.57C67.1456 250.332 67.066 250.026 66.828 249.886C67.8457 248.157 68.8749 246.429 69.9154 244.703C70.1517 244.845 70.4589 244.769 70.6017 244.533C71.8056 242.54 73.0247 240.549 74.259 238.561C74.4046 238.326 74.3325 238.018 74.0981 237.872C75.1599 236.165 76.2329 234.46 77.3172 232.757C77.5499 232.905 77.8589 232.837 78.0074 232.604C79.2605 230.639 80.5285 228.677 81.8114 226.718C81.9627 226.487 81.8981 226.178 81.6673 226.026C82.766 224.352 83.8755 222.679 84.9959 221.01C85.2251 221.163 85.5356 221.103 85.6896 220.873C86.997 218.928 88.3191 216.987 89.6559 215.048C89.8126 214.821 89.7555 214.51 89.5283 214.353C90.6626 212.711 91.8074 211.072 92.9627 209.436C93.1882 209.595 93.5001 209.542 93.6595 209.316C95.0084 207.409 96.3715 205.505 97.749 203.606C97.9111 203.382 97.8613 203.07 97.6379 202.908C98.8185 201.282 100.01 199.66 101.211 198.04C101.433 198.205 101.746 198.158 101.911 197.937C103.299 196.068 104.702 194.203 106.119 192.342C106.286 192.123 106.244 191.809 106.024 191.642C107.242 190.045 108.471 188.451 109.709 186.86C109.927 187.03 110.241 186.991 110.411 186.773C111.133 185.847 111.859 184.922 112.588 183.998C113.317 183.075 114.049 182.154 114.781 181.236C114.954 181.021 114.919 180.706 114.703 180.534C115.963 178.96 117.228 177.395 118.498 175.839C118.712 176.014 119.027 175.982 119.202 175.769C120.683 173.958 122.171 172.161 123.666 170.376C123.843 170.164 123.816 169.849 123.604 169.672C124.9 168.127 126.202 166.592 127.509 165.066C127.718 165.245 128.034 165.221 128.214 165.012C129.742 163.231 131.276 161.463 132.818 159.708C133.001 159.501 132.98 159.185 132.773 159.002C134.096 157.499 135.425 156.005 136.758 154.52C136.963 154.705 137.279 154.688 137.464 154.483C139.039 152.732 140.621 150.995 142.209 149.272C142.396 149.069 142.383 148.753 142.18 148.566C143.544 147.088 144.913 145.621 146.287 144.163C146.488 144.353 146.804 144.343 146.994 144.143C148.601 142.44 150.215 140.751 151.835 139.076C152.027 138.877 152.022 138.561 151.823 138.369C153.228 136.919 154.637 135.479 156.051 134.05C156.248 134.244 156.564 134.243 156.758 134.047C158.406 132.384 160.059 130.736 161.718 129.103C161.915 128.909 161.917 128.592 161.724 128.396C163.161 126.983 164.603 125.58 166.049 124.189C166.24 124.388 166.556 124.394 166.755 124.203C168.449 122.576 170.148 120.964 171.852 119.367C172.054 119.178 172.064 118.862 171.875 118.66C173.338 117.292 174.805 115.935 176.276 114.588C176.462 114.792 176.778 114.806 176.982 114.62C178.722 113.031 180.466 111.456 182.216 109.898C182.422 109.714 182.441 109.398 182.257 109.192C183.759 107.856 185.266 106.531 186.776 105.218C186.957 105.426 187.273 105.449 187.481 105.268C189.251 103.731 191.027 102.21 192.807 100.704C193.017 100.526 193.044 100.211 192.866 99.9997C194.408 98.6977 195.954 97.4074 197.503 96.1291C197.679 96.3421 197.994 96.3725 198.207 96.197C200.012 94.7107 201.821 93.2405 203.634 91.7865C203.85 91.6139 203.884 91.2993 203.712 91.0839C205.29 89.8211 206.871 88.5706 208.456 87.3324C208.625 87.5499 208.94 87.5887 209.157 87.4189C211.007 85.9764 212.86 84.5507 214.718 83.1419C214.937 82.975 214.981 82.6615 214.814 82.4415C216.417 81.2283 218.022 80.0276 219.63 78.8396C219.794 79.0617 220.107 79.109 220.329 78.9452C222.224 77.5488 224.121 76.17 226.023 74.8088C226.247 74.6481 226.299 74.3359 226.138 74.1114C227.77 72.9457 229.404 71.793 231.04 70.6534C231.198 70.88 231.509 70.936 231.736 70.7784C233.67 69.4343 235.607 68.1085 237.547 66.801C237.776 66.6467 237.837 66.3361 237.683 66.1071C239.352 64.9842 241.024 63.8748 242.698 62.7791C242.849 63.0101 243.159 63.0751 243.39 62.9241C245.354 61.6416 247.32 60.3779 249.289 59.1331C249.522 58.9855 249.592 58.6768 249.445 58.4435C251.153 57.3659 252.862 56.3026 254.574 55.2536C254.718 55.489 255.026 55.5632 255.261 55.4191C257.254 54.2004 259.249 53.0011 261.246 51.8213C261.483 51.6809 261.562 51.3744 261.422 51.1367C263.168 50.1076 264.916 49.0934 266.664 48.0942C266.801 48.3339 267.106 48.4174 267.346 48.2807C269.381 47.1208 271.417 45.9812 273.455 44.8621C273.696 44.7292 273.785 44.4254 273.652 44.1834C275.423 43.2134 277.194 42.2588 278.967 41.3198C279.096 41.5637 279.398 41.6569 279.642 41.528C281.719 40.4307 283.796 39.3547 285.873 38.3002C286.12 38.1753 286.218 37.8745 286.093 37.6283C287.888 36.7201 289.683 35.8278 291.478 34.9517C291.599 35.1998 291.898 35.303 292.146 35.1822C294.264 34.1519 296.381 33.1441 298.498 32.1588C298.748 32.0423 298.857 31.7451 298.741 31.4948C300.559 30.6511 302.378 29.824 304.195 29.0136C304.308 29.2657 304.603 29.3793 304.855 29.2672C307.012 28.3089 309.169 27.3741 311.324 26.463C311.578 26.3555 311.697 26.0623 311.59 25.8081C313.439 25.029 315.288 24.2675 317.136 23.5234C317.239 23.7795 317.53 23.9037 317.786 23.801C319.974 22.9231 322.161 22.0698 324.346 21.2413C324.604 21.1434 324.734 20.855 324.636 20.5968C326.517 19.8863 328.397 19.194 330.276 18.5202C330.369 18.7801 330.655 18.9155 330.915 18.8226C333.131 18.0311 335.345 17.2654 337.556 16.5256C337.817 16.438 337.959 16.1549 337.871 15.8931C339.783 15.2564 341.693 14.639 343.6 14.0411C343.682 14.3045 343.962 14.4514 344.226 14.3693C346.469 13.6696 348.709 12.997 350.945 12.3515C351.21 12.2749 351.363 11.998 351.286 11.7328C353.226 11.176 355.163 10.6396 357.096 10.1238C357.167 10.3905 357.441 10.5493 357.708 10.4786C359.977 9.877 362.241 9.30379 364.501 8.7591C364.769 8.6944 364.934 8.42456 364.87 8.15623C366.834 7.68598 368.795 7.23727 370.752 6.81022C370.81 7.07988 371.076 7.2511 371.346 7.1927C373.639 6.69627 375.926 6.22969 378.207 5.79313C378.478 5.74124 378.656 5.47954 378.604 5.20847C380.59 4.83196 382.571 4.47819 384.547 4.14727C384.592 4.41945 384.85 4.60349 385.122 4.5584C387.436 4.1751 389.743 3.82326 392.042 3.50308C392.316 3.46502 392.507 3.21269 392.469 2.93936C394.471 2.66435 396.468 2.41333 398.458 2.18643C398.489 2.4606 398.736 2.65789 399.01 2.62716C401.342 2.3659 403.665 2.13786 405.979 1.94324C406.254 1.92011 406.458 1.67855 406.435 1.40359C408.448 1.23833 410.455 1.09834 412.453 0.983789C412.469 1.25925 412.705 1.47016 412.98 1.45494C415.324 1.3255 417.657 1.23114 419.98 1.1721C420.256 1.16508 420.474 0.935889 420.467 0.66008C422.484 0.61316 424.493 0.592864 426.493 0.599313C426.492 0.875191 426.714 1.09997 426.99 1.10147C429.339 1.1143 431.676 1.16416 433.999 1.2513C434.275 1.26164 434.507 1.04663 434.518 0.77097C436.531 0.851128 438.534 0.959246 440.527 1.09547C440.508 1.37066 440.715 1.60944 440.991 1.62891C443.335 1.79475 445.665 1.99963 447.98 2.24379C448.255 2.27272 448.501 2.0739 448.53 1.7996C450.529 2.01543 452.517 2.26055 454.494 2.5351C454.456 2.80828 454.646 3.06093 454.919 3.09959C457.246 3.42893 459.558 3.79927 461.852 4.21084C462.124 4.25956 462.384 4.07907 462.433 3.80763C464.409 4.1675 466.373 4.55796 468.323 4.97919C468.265 5.24873 468.436 5.51486 468.705 5.57383C471 6.0758 473.276 6.62052 475.533 7.20827C475.801 7.27779 476.073 7.11788 476.143 6.85106C478.087 7.3631 480.018 7.90707 481.934 8.48313C481.854 8.74714 482.003 9.026 482.267 9.1062C484.508 9.78705 486.729 10.512 488.929 11.2814C489.189 11.3725 489.474 11.2354 489.566 10.9752C491.462 11.6446 493.343 12.347 495.207 13.0826C495.106 13.339 495.231 13.6294 495.487 13.7314C497.659 14.5955 499.808 15.5049 501.935 16.4599C502.187 16.5729 502.483 16.4607 502.596 16.2093C504.426 17.0378 506.24 17.9001 508.036 18.7964C507.912 19.0429 508.012 19.343 508.258 19.467C510.344 20.5158 512.406 21.6106 514.444 22.7517C514.684 22.8865 514.989 22.8009 515.124 22.5605C516.87 23.5458 518.599 24.5651 520.309 25.6187C520.164 25.8532 520.236 26.161 520.471 26.3065C522.451 27.5355 524.407 28.8108 526.337 30.1326C526.564 30.2885 526.875 30.2306 527.031 30.0033C528.68 31.1404 530.31 32.3115 531.921 33.5169C531.755 33.7374 531.8 34.0505 532.02 34.2164C532.954 34.9202 533.882 35.6356 534.803 36.3626C535.724 37.0895 536.635 37.8257 537.536 38.5709C537.749 38.7467 538.064 38.717 538.24 38.5048C539.786 39.7916 541.304 41.1051 542.793 42.4449C542.608 42.6496 542.624 42.9653 542.828 43.1505C544.562 44.7208 546.257 46.3268 547.912 47.9679C548.108 48.1621 548.424 48.1609 548.619 47.9654C550.041 49.3841 551.433 50.8286 552.797 52.2984C552.595 52.4857 552.582 52.8016 552.769 53.0044C554.352 54.7215 555.896 56.473 557.401 58.2579C557.578 58.4689 557.893 58.496 558.105 58.3185C559.393 59.8576 560.653 61.4213 561.884 63.0091C561.666 63.1778 561.625 63.4913 561.794 63.7099C563.217 65.557 564.6 67.4366 565.945 69.3479C566.104 69.5736 566.415 69.628 566.641 69.4696C567.79 71.1127 568.91 72.7789 570.001 74.4677C569.769 74.617 569.702 74.926 569.851 75.1582C571.11 77.1196 572.331 79.1115 573.514 81.133C573.653 81.3711 573.959 81.4514 574.197 81.3124C575.202 83.0423 576.18 84.7935 577.129 86.5657C576.886 86.6956 576.794 86.9981 576.923 87.2416C578.019 89.3011 579.078 91.3887 580.099 93.5037C580.219 93.7522 580.517 93.8565 580.766 93.7369C581.629 95.5367 582.464 97.3561 583.273 99.1946C583.021 99.3053 582.905 99.5998 583.016 99.8526C583.949 101.989 584.846 104.151 585.707 106.338C585.808 106.595 586.098 106.722 586.355 106.621C587.081 108.48 587.781 110.357 588.455 112.251C588.195 112.343 588.059 112.629 588.15 112.889C588.926 115.084 589.666 117.303 590.372 119.545C590.455 119.808 590.735 119.954 590.998 119.872C591.594 121.779 592.164 123.702 592.709 125.641C592.444 125.716 592.288 125.991 592.362 126.257C592.987 128.497 593.578 130.758 594.136 133.04C594.201 133.308 594.472 133.472 594.74 133.407C595.21 135.351 595.657 137.309 596.08 139.282C595.81 139.34 595.638 139.605 595.695 139.875C596.177 142.148 596.627 144.439 597.045 146.749C597.095 147.021 597.354 147.201 597.626 147.152C597.979 149.123 598.308 151.107 598.615 153.103C598.342 153.145 598.155 153.399 598.196 153.672C598.544 155.968 598.862 158.28 599.149 160.609C599.183 160.883 599.432 161.078 599.706 161.044C599.948 163.033 600.167 165.033 600.365 167.044C600.09 167.071 599.889 167.315 599.915 167.59C600.138 169.901 600.331 172.226 600.496 174.566C600.515 174.842 600.754 175.049 601.029 175.03C601.166 177.029 601.282 179.038 601.377 181.057C601.101 181.07 600.888 181.303 600.901 181.579C601.006 183.899 601.083 186.232 601.132 188.577C601.138 188.853 601.367 189.072 601.643 189.067C601.682 191.069 601.7 193.08 601.699 195.101C601.423 195.1 601.199 195.323 601.199 195.599C601.193 197.924 601.162 200.259 601.103 202.606C601.097 202.882 601.315 203.111 601.591 203.118C601.538 205.119 601.466 207.127 601.375 209.143C601.099 209.13 600.865 209.343 600.852 209.619C600.744 211.944 600.609 214.278 600.45 216.623C600.431 216.898 600.639 217.137 600.914 217.156C600.776 219.149 600.619 221.15 600.443 223.158C600.168 223.133 599.926 223.337 599.901 223.611C599.695 225.934 599.464 228.265 599.209 230.604C599.179 230.879 599.377 231.125 599.652 231.155C599.433 233.139 599.196 235.128 598.942 237.123C598.668 237.088 598.417 237.282 598.382 237.555C598.084 239.873 597.761 242.198 597.416 244.53C597.375 244.803 597.564 245.057 597.837 245.098C597.542 247.068 597.231 249.043 596.902 251.023C596.63 250.978 596.373 251.161 596.327 251.434C595.941 253.742 595.533 256.056 595.102 258.377C595.051 258.648 595.23 258.909 595.502 258.96C595.135 260.916 594.753 262.877 594.355 264.842C594.084 264.787 593.82 264.961 593.765 265.232C593.299 267.52 592.81 269.813 592.299 272.112C592.24 272.381 592.41 272.648 592.679 272.708C592.244 274.658 591.792 276.611 591.326 278.568C591.057 278.503 590.788 278.669 590.723 278.937C590.18 281.203 589.616 283.473 589.031 285.748C588.962 286.015 589.123 286.288 589.39 286.357C588.888 288.298 588.371 290.243 587.839 292.191C587.573 292.118 587.298 292.274 587.225 292.54C586.609 294.782 585.974 297.027 585.318 299.276C585.241 299.541 585.393 299.818 585.658 299.896C585.092 301.829 584.511 303.764 583.916 305.701C583.652 305.62 583.372 305.768 583.291 306.031C582.607 308.248 581.904 310.467 581.181 312.688C581.096 312.951 581.239 313.233 581.502 313.318C580.879 315.226 580.242 317.136 579.59 319.048C579.329 318.959 579.045 319.098 578.955 319.359C578.202 321.563 577.429 323.769 576.638 325.977C576.545 326.237 576.68 326.523 576.94 326.617C576.262 328.499 575.572 330.383 574.867 332.268C574.609 332.171 574.321 332.302 574.224 332.561C573.403 334.751 572.563 336.944 571.705 339.137C571.604 339.394 571.731 339.684 571.988 339.785C571.259 341.641 570.517 343.498 569.763 345.355C569.507 345.251 569.215 345.374 569.111 345.63C568.229 347.795 567.328 349.961 566.41 352.128C566.302 352.382 566.421 352.675 566.675 352.783C565.893 354.623 565.098 356.464 564.29 358.305C564.037 358.194 563.742 358.308 563.631 358.561C562.692 360.695 561.736 362.829 560.762 364.962C560.647 365.214 560.758 365.51 561.009 365.625C560.173 367.453 559.324 369.282 558.462 371.11C558.212 370.992 557.914 371.099 557.796 371.349C556.803 373.45 555.793 375.551 554.767 377.652C554.646 377.9 554.748 378.199 554.996 378.32C554.113 380.124 553.217 381.928 552.308 383.73C552.062 383.606 551.761 383.705 551.637 383.951C550.586 386.032 549.518 388.112 548.435 390.191C548.307 390.436 548.402 390.737 548.647 390.865C547.72 392.639 546.782 394.412 545.831 396.183C545.588 396.053 545.285 396.144 545.154 396.387C544.044 398.451 542.918 400.514 541.776 402.574C541.642 402.816 541.729 403.12 541.971 403.254C541.003 404.997 540.023 406.739 539.032 408.48C538.792 408.343 538.487 408.427 538.35 408.666C537.192 410.695 536.019 412.722 534.83 414.747C534.69 414.985 534.77 415.291 535.008 415.431C533.99 417.161 532.961 418.889 531.92 420.615C531.684 420.472 531.377 420.548 531.234 420.784C530.03 422.778 528.811 424.768 527.577 426.757C527.431 426.991 527.503 427.3 527.738 427.445C526.676 429.152 525.603 430.858 524.519 432.561C524.286 432.412 523.977 432.481 523.828 432.713C522.575 434.678 521.307 436.64 520.024 438.599C519.873 438.83 519.938 439.14 520.169 439.291C519.07 440.966 517.96 442.638 516.84 444.308C516.611 444.154 516.3 444.215 516.146 444.444C514.839 446.389 513.517 448.331 512.18 450.269C512.023 450.496 512.08 450.808 512.307 450.964C511.173 452.606 510.028 454.245 508.873 455.882C508.648 455.722 508.336 455.776 508.176 456.001C506.827 457.908 505.464 459.812 504.087 461.712C503.924 461.935 503.974 462.248 504.198 462.41C503.017 464.035 501.826 465.658 500.625 467.277C500.403 467.113 500.09 467.159 499.925 467.38C498.536 469.249 497.133 471.114 495.717 472.975C495.549 473.195 495.592 473.508 495.811 473.676C494.593 475.273 493.365 476.867 492.126 478.457Z" stroke="#75DAC8" stroke-linecap="round" stroke-linejoin="round" stroke-dasharray="7 7"/>
</svg>
