<svg width="26" height="26" viewBox="0 0 26 26" fill="none" xmlns="http://www.w3.org/2000/svg">
<path d="M19.5 3.25H6.5C4.70519 3.25 3.25 4.70519 3.25 6.5V19.5C3.25 21.2948 4.70519 22.75 6.5 22.75H19.5C21.2948 22.75 22.75 21.2948 22.75 19.5V6.5C22.75 4.70519 21.2948 3.25 19.5 3.25ZM9.75 19.0938H7.71875V10.9688H9.75V19.0938ZM9.76178 9.34741C9.49894 9.61553 9.15606 9.75 8.73438 9.75C8.31756 9.75 7.97672 9.61147 7.71103 9.33441C7.44534 9.05734 7.3125 8.71731 7.3125 8.31512C7.3125 7.90075 7.44534 7.56275 7.71103 7.30031C7.97672 7.03747 8.31756 6.90625 8.73438 6.90625C9.15606 6.90625 9.49894 7.03747 9.76178 7.29991C10.0246 7.56234 10.1562 7.90075 10.1562 8.31512C10.1562 8.73519 10.0246 9.07928 9.76178 9.34741ZM19.0938 19.0938H17.0625V14.5791C17.0625 13.3201 16.3369 12.5938 15.4375 12.5938C15.004 12.5938 14.5137 12.857 14.233 13.1905C13.9522 13.5241 13.8125 13.947 13.8125 14.4601V19.0938H11.7812V10.9688H13.8125V12.2541H13.8442C14.4422 11.2649 15.312 10.7737 16.4548 10.7705C18.0781 10.7656 19.0938 11.9844 19.0938 14.1188V19.0938Z" fill="#292D32"/>
</svg>
