<svg width="24" height="24" viewBox="0 0 24 24" fill="none" xmlns="http://www.w3.org/2000/svg">
<path d="M7.67945 1.43994C4.23785 1.43994 1.43945 4.23834 1.43945 7.67994V16.3199C1.43945 19.7615 4.23785 22.5599 7.67945 22.5599H16.3195C19.7611 22.5599 22.5595 19.7615 22.5595 16.3199V7.67994C22.5595 4.23834 19.7611 1.43994 16.3195 1.43994H7.67945ZM17.7595 5.27994C18.2875 5.27994 18.7195 5.71194 18.7195 6.23994C18.7195 6.76794 18.2875 7.19994 17.7595 7.19994C17.2315 7.19994 16.7995 6.76794 16.7995 6.23994C16.7995 5.71194 17.2315 5.27994 17.7595 5.27994ZM11.9995 6.71994C14.9131 6.71994 17.2795 9.08634 17.2795 11.9999C17.2795 14.9135 14.9131 17.2799 11.9995 17.2799C9.08585 17.2799 6.71945 14.9135 6.71945 11.9999C6.71945 9.08634 9.08585 6.71994 11.9995 6.71994ZM11.9995 7.67994C9.61865 7.67994 7.67945 9.61914 7.67945 11.9999C7.67945 14.3807 9.61865 16.3199 11.9995 16.3199C14.3803 16.3199 16.3195 14.3807 16.3195 11.9999C16.3195 9.61914 14.3803 7.67994 11.9995 7.67994Z" fill="#292D32"/>
</svg>
