<svg width="24" height="24" viewBox="0 0 24 24" fill="none" xmlns="http://www.w3.org/2000/svg">
<path d="M23.194 6.45925C23.1366 6.32275 23.0401 6.20629 22.9167 6.12454C22.7932 6.04279 22.6483 5.99942 22.5002 5.99988H19.6503C19.3082 5.40318 18.8335 4.89321 18.2627 4.50947C17.692 4.12572 17.0405 3.8785 16.3589 3.78695C15.6772 3.6954 14.9837 3.76198 14.3319 3.98152C13.6801 4.20107 13.0876 4.56769 12.6002 5.053C12.1736 5.46904 11.8343 5.96616 11.6025 6.51515C11.3707 7.06415 11.2509 7.65394 11.2502 8.24988V8.82175C7.43462 7.828 4.31275 4.753 4.28462 4.7155C4.18656 4.61903 4.06385 4.55138 3.92991 4.51996C3.79598 4.48854 3.65599 4.49457 3.52525 4.53738C3.39493 4.57885 3.27822 4.65475 3.18747 4.75706C3.09671 4.85937 3.03526 4.98429 3.00962 5.11863C2.194 9.63738 3.55337 12.6655 4.83775 14.4093C5.48195 15.291 6.26382 16.0634 7.15337 16.6968C5.719 18.3186 3.5065 19.1624 3.48775 19.1718C3.38195 19.211 3.28636 19.2736 3.20812 19.3549C3.12988 19.4362 3.07099 19.5341 3.03584 19.6414C3.0007 19.7486 2.99021 19.8624 3.00515 19.9742C3.02009 20.0861 3.06007 20.1931 3.12212 20.2874C3.19712 20.3999 3.47837 20.7655 4.16275 21.1124C5.01587 21.5343 6.14087 21.7499 7.50025 21.7499C14.1096 21.7499 19.6409 16.6593 20.2034 10.1061L23.0346 7.28425C23.1364 7.17582 23.2053 7.04079 23.2335 6.89479C23.2617 6.74879 23.248 6.59779 23.194 6.45925ZM18.9471 9.24363C18.8165 9.37321 18.7395 9.54729 18.7315 9.73113C18.3471 15.628 13.4159 20.2499 7.50025 20.2499C6.5065 20.2499 5.81275 20.1186 5.32525 19.9593C6.40337 19.378 7.90337 18.3655 8.87837 16.9124C8.93497 16.8244 8.97255 16.7256 8.98869 16.6223C9.00484 16.519 8.99919 16.4134 8.97212 16.3124C8.94483 16.2103 8.89655 16.1151 8.83037 16.0328C8.76418 15.9504 8.68155 15.8828 8.58775 15.8343C8.57837 15.8249 7.19087 15.103 6.00025 13.4624C4.65025 11.6061 4.07837 9.34676 4.30338 6.7405C5.78463 7.95926 8.61587 9.94675 11.8784 10.4905C11.9861 10.5078 12.0963 10.5017 12.2015 10.4726C12.3066 10.4435 12.4043 10.392 12.4877 10.3218C12.5694 10.2503 12.635 10.1625 12.6802 10.0639C12.7254 9.96534 12.7493 9.85833 12.7502 9.74988V8.24988C12.7516 7.56175 12.9896 6.89502 13.4241 6.36146C13.8587 5.82791 14.4634 5.45996 15.137 5.3193C15.8106 5.17865 16.5121 5.27384 17.1239 5.58892C17.7356 5.904 18.2205 6.41981 18.4971 7.04988C18.5569 7.1839 18.6543 7.29773 18.7774 7.37759C18.9005 7.45745 19.0441 7.49993 19.1909 7.49988H20.6909L18.9471 9.24363Z" fill="#373A4A"/>
</svg>
