<svg width="54" height="54" viewBox="0 0 54 54" fill="none" xmlns="http://www.w3.org/2000/svg">
<g clip-path="url(#clip0_41_532)">
<path d="M16.7378 23.5636C13.1231 24.2625 9.50847 24.9614 5.89381 25.6604L7.95438 27.739C8.71718 24.6868 9.47997 21.6345 10.2428 18.5822C10.3517 18.1463 10.4606 17.7104 10.5696 17.2744C10.7913 16.3872 10.2632 15.438 9.36889 15.1996C8.49304 14.9661 7.51679 15.5089 7.29402 16.4003C6.53123 19.4525 5.76843 22.5048 5.00564 25.5571C4.8967 25.993 4.78775 26.4289 4.67881 26.8649C4.35725 28.1516 5.49631 29.1839 6.73938 28.9435C10.354 28.2445 13.9687 27.5456 17.5834 26.8466C18.4824 26.6728 19.0203 25.6303 18.8021 24.7823C18.5619 23.8485 17.639 23.3893 16.7378 23.5636Z" fill="#FFFDF1"/>
<path d="M52.0708 29.095C46.7718 24.8166 39.5152 23.1831 32.9321 25.1316C29.3907 26.1798 25.6075 28.4516 24.6858 32.2978C23.8572 35.7556 25.5729 39.8029 29.3511 40.4436C33.1751 41.0922 36.3787 38.6388 38.3047 35.5478C39.2906 33.9654 40.0634 32.2267 40.8018 30.5174C41.4698 28.9709 42.0982 27.3845 42.41 25.7224C43.0605 22.2546 42.3127 18.7165 39.6265 16.2708C36.9155 13.8024 33.2023 12.8322 29.5971 13.1687C25.3707 13.5631 21.316 15.2511 17.5527 17.1353C13.4211 19.2039 9.57857 21.8134 6.06498 24.8101C5.3677 25.4048 5.44428 26.5913 6.05453 27.2069C6.74037 27.8987 7.75207 27.8138 8.45137 27.2174C13.4236 22.9766 19.3004 19.4332 25.5546 17.4568C28.3067 16.5871 31.2873 16.0705 34.107 16.9361C36.558 17.6884 38.7284 19.5099 39.1903 22.1239C39.6275 24.5981 38.6001 27.1888 37.6073 29.4059C36.449 31.9929 35.2118 35.3203 32.5305 36.6805C30.5149 37.7029 28.116 37.0459 27.8681 34.5748C27.5783 31.685 30.2181 29.732 32.6257 28.7993C38.2094 26.6361 45.0079 27.7224 49.6635 31.4814C50.3757 32.0563 51.3586 32.1875 52.0604 31.4918C52.6554 30.902 52.7876 29.6737 52.0708 29.095Z" fill="#FFFDF1"/>
</g>
<defs>
<clipPath id="clip0_41_532">
<rect width="42.462" height="33.11" fill="white" transform="translate(29.8939 53.4658) rotate(-134.75)"/>
</clipPath>
</defs>
</svg>
